<?xml version="1.0" encoding="UTF-8"?>
<svg xmlns="http://www.w3.org/2000/svg" viewBox="0 0 595 842" width="595" height="842" font-family="Yu Gothic UI, Hiragino Sans, Meiryo, sans-serif">
<style>
.cell{stroke-width:0.8;cursor:pointer;transition:all .12s}
.cell:hover{fill:#fde68a!important;stroke-width:1.6;stroke:#f59e0b}
.pname{font-weight:700;fill:#0f172a;text-anchor:middle;dominant-baseline:central;pointer-events:none}
.frame{fill:#fff;stroke:#0f172a;stroke-width:1.6}
.title{font-size:20px;font-weight:700;fill:#0f172a;text-anchor:middle}
.subtitle{font-size:11px;fill:#64748b;text-anchor:middle}
.equip{fill:#f1f5f9;stroke:#94a3b8;stroke-width:1.2;stroke-dasharray:4 3}
.equip-label{font-size:11px;font-weight:700;fill:#64748b;text-anchor:middle;dominant-baseline:central}
.block-tag{font-size:15px;font-weight:800}
</style>
<rect width="595" height="842" fill="#f8fafc"/>
<text x="297.5" y="40" class="title">15°C 冷蔵庫 区画マスター図</text>
<text x="297.5" y="58" class="subtitle">区画ID形式: 列記号(A=左/B=右) + 連番</text>
<rect x="116.7" y="95.0" width="143.3" height="65.0" rx="4" class="equip"/>
<text x="188.35" y="127.5" class="equip-label">ダンボール置き場</text>
<rect x="116.7" y="720.0" width="118.3" height="55.0" rx="4" class="equip"/>
<text x="175.85" y="747.5" class="equip-label">個包装機</text>
<g><title>A01: M#20A</title>
<rect x="116.7" y="177.8" width="65.9" height="59.4" rx="1.5" fill="#dbeafe" stroke="#2563eb" class="cell" data-cell-id="A01"/>
<text x="149.7" y="207.5" class="pname" font-size="9">M#20A</text>
</g>
<g><title>A02: M#20</title>
<rect x="116.7" y="237.2" width="65.9" height="59.8" rx="1.5" fill="#dbeafe" stroke="#2563eb" class="cell" data-cell-id="A02"/>
<text x="149.7" y="267.1" class="pname" font-size="9">M#20</text>
</g>
<g><title>A03: J#18AW</title>
<rect x="116.7" y="297.0" width="65.9" height="29.5" rx="1.5" fill="#dbeafe" stroke="#2563eb" class="cell" data-cell-id="A03"/>
<text x="149.7" y="311.8" class="pname" font-size="9">J#18AW</text>
</g>
<g><title>A04: J#16AW</title>
<rect x="116.7" y="326.5" width="65.9" height="59.8" rx="1.5" fill="#dbeafe" stroke="#2563eb" class="cell" data-cell-id="A04"/>
<text x="149.7" y="356.4" class="pname" font-size="9">J#16AW</text>
</g>
<g><title>A05: J#オロチ</title>
<rect x="116.7" y="386.3" width="65.9" height="29.5" rx="1.5" fill="#dbeafe" stroke="#2563eb" class="cell" data-cell-id="A05"/>
<text x="149.7" y="401.1" class="pname" font-size="9">J#オロチ</text>
</g>
<g><title>A06: J#20A</title>
<rect x="116.7" y="415.8" width="65.9" height="29.9" rx="1.5" fill="#dbeafe" stroke="#2563eb" class="cell" data-cell-id="A06"/>
<text x="149.7" y="430.8" class="pname" font-size="9">J#20A</text>
</g>
<g><title>A07: N#22(140g)</title>
<rect x="116.7" y="445.7" width="65.9" height="59.7" rx="1.5" fill="#dbeafe" stroke="#2563eb" class="cell" data-cell-id="A07"/>
<text x="149.7" y="475.5" class="pname" font-size="7.5">N#22(140g)</text>
</g>
<g><title>A08: W#26</title>
<rect x="116.7" y="505.4" width="65.9" height="59.4" rx="1.5" fill="#dbeafe" stroke="#2563eb" class="cell" data-cell-id="A08"/>
<text x="149.7" y="535.1" class="pname" font-size="9">W#26</text>
</g>
<g><title>A09: N#22(120g)</title>
<rect x="116.7" y="564.8" width="65.9" height="59.7" rx="1.5" fill="#dbeafe" stroke="#2563eb" class="cell" data-cell-id="A09"/>
<text x="149.7" y="594.6" class="pname" font-size="7.5">N#22(120g)</text>
</g>
<g><title>A10: W#24</title>
<rect x="116.7" y="624.5" width="65.9" height="59.5" rx="1.5" fill="#dbeafe" stroke="#2563eb" class="cell" data-cell-id="A10"/>
<text x="149.7" y="654.2" class="pname" font-size="9">W#24</text>
</g>
<g><title>B01: M&amp;C</title>
<rect x="314.0" y="177.8" width="65.9" height="119.2" rx="1.5" fill="#fce7f3" stroke="#db2777" class="cell" data-cell-id="B01"/>
<text x="346.9" y="237.4" class="pname" font-size="9">M&amp;C</text>
</g>
<g><title>B02: N#16</title>
<rect x="314.0" y="297.0" width="65.9" height="29.5" rx="1.5" fill="#fce7f3" stroke="#db2777" class="cell" data-cell-id="B02"/>
<text x="346.9" y="311.8" class="pname" font-size="9">N#16</text>
</g>
<g><title>B03: N#22(140g)白</title>
<rect x="314.0" y="326.5" width="65.9" height="208.5" rx="1.5" fill="#fce7f3" stroke="#db2777" class="cell" data-cell-id="B03"/>
<text x="346.9" y="430.8" class="pname" font-size="7.5">N#22(140g)白</text>
</g>
<g><title>B04: SH</title>
<rect x="314.0" y="535.0" width="65.9" height="29.8" rx="1.5" fill="#fce7f3" stroke="#db2777" class="cell" data-cell-id="B04"/>
<text x="346.9" y="549.9" class="pname" font-size="9">SH</text>
</g>
<g><title>B05: M#24</title>
<rect x="314.0" y="564.8" width="65.9" height="59.4" rx="1.5" fill="#fce7f3" stroke="#db2777" class="cell" data-cell-id="B05"/>
<text x="346.9" y="594.5" class="pname" font-size="9">M#24</text>
</g>
<g><title>B06: N#24(150g)</title>
<rect x="314.0" y="684.0" width="65.9" height="44.6" rx="1.5" fill="#fce7f3" stroke="#db2777" class="cell" data-cell-id="B06"/>
<text x="346.9" y="706.3" class="pname" font-size="7.5">N#24(150g)</text>
</g>
<g><title>B07: M#22</title>
<rect x="314.0" y="728.6" width="65.9" height="44.7" rx="1.5" fill="#fce7f3" stroke="#db2777" class="cell" data-cell-id="B07"/>
<text x="346.9" y="751.0" class="pname" font-size="9">M#22</text>
</g>
<text x="149.65" y="172" class="block-tag" fill="#2563eb" text-anchor="middle">A列</text>
<text x="346.95" y="172" class="block-tag" fill="#db2777" text-anchor="middle">B列</text>
</svg>